<svg xmlns="http://www.w3.org/2000/svg" width="41.099" height="42.255" viewBox="0 0 41.099 42.255">
  <g id="Grupo_96" data-name="Grupo 96" transform="translate(-840.519 -1267)">
    <path id="Caminho_139" data-name="Caminho 139" d="M10.272,20.226,17.261,16.2A2.017,2.017,0,0,0,18.32,14.3V6.248a2.016,2.016,0,0,0-1.059-1.906L10.272.318a2.1,2.1,0,0,0-2.224,0L1.059,4.342A2.224,2.224,0,0,0,0,6.248V14.3A2.224,2.224,0,0,0,1.059,16.2l6.989,4.024a2.1,2.1,0,0,0,2.224,0Z" transform="translate(881.087 1278.967) rotate(90)" fill="none" stroke="#81d742" stroke-width="1" fill-rule="evenodd"/>
    <path id="Caminho_140" data-name="Caminho 140" d="M10.272,20.226,17.261,16.2A2.017,2.017,0,0,0,18.32,14.3V6.248a2.016,2.016,0,0,0-1.059-1.906L10.272.318a2.1,2.1,0,0,0-2.224,0L1.059,4.342A2.224,2.224,0,0,0,0,6.248V14.3A2.224,2.224,0,0,0,1.059,16.2l6.989,4.024a2.1,2.1,0,0,0,2.224,0Z" transform="translate(861.593 1267.5) rotate(90)" fill="none" stroke="#81d742" stroke-width="1" fill-rule="evenodd"/>
    <path id="Caminho_141" data-name="Caminho 141" d="M10.272,20.226,17.261,16.2A2.017,2.017,0,0,0,18.32,14.3V6.248a2.016,2.016,0,0,0-1.059-1.906L10.272.318a2.1,2.1,0,0,0-2.224,0L1.059,4.342A2.224,2.224,0,0,0,0,6.248V14.3A2.224,2.224,0,0,0,1.059,16.2l6.989,4.024a2.1,2.1,0,0,0,2.224,0Z" transform="translate(861.593 1290.434) rotate(90)" fill="none" stroke="#81d742" stroke-width="1" fill-rule="evenodd"/>
  </g>
</svg>
