<svg xmlns="http://www.w3.org/2000/svg" viewBox="0 0 771.4 146.15"><defs><style>.cls-1{fill:#fff;}.cls-2{fill:#ae0738;}</style></defs><g id="Camada_2" data-name="Camada 2"><g id="Camada_1-2" data-name="Camada 1"><rect y="0.56" width="157.11" height="145.58"/><path d="M181.63,122.41H189c4.1,0,5.75,2.92,5.75,6.41,0,4.31-2.14,6.66-5.63,6.66h-5.69v9.14h-1.83Zm1.83,10.86h5.35c2.39,0,4.09-.93,4.09-4.41,0-2.72-1.36-4.24-4.09-4.24h-5.35Z"/><path d="M224.47,133.45c0,6.31-3.12,11.63-8.43,11.63-5.14,0-8.45-5.13-8.45-11.65,0-6.17,3.36-11.48,8.48-11.48S224.47,127.26,224.47,133.45Zm-14.94-.11c0,4.94,2.29,9.56,6.55,9.56s6.46-4.22,6.46-9.39c0-4.79-2.32-9.38-6.6-9.38C212,124.13,209.53,128.38,209.53,133.34Z"/><path d="M238.44,122.41h1.8v20h10l-.3,2.21H238.44Z"/><path d="M264.92,144.62V136a.9.9,0,0,0-.15-.51L258,122.41h2.18c2,3.89,5,9.58,5.76,11.36.8-1.81,3.7-7.47,5.7-11.36h2.06l-6.8,13.14a1,1,0,0,0-.11.51v8.56Z"/><path d="M287.76,122.41v12.64c0,6.13,2.69,7.85,5.28,7.85,3.22,0,5.11-2.11,5.11-7.85V122.41H300V135c0,7.35-2.76,10.12-7,10.12s-7-2.92-7-9.85V122.41Z"/><path d="M316.78,134.76v9.86H315V122.41h7.43c3.21,0,5.46,2,5.46,5.94,0,2.63-.91,4.59-3,5.3,1.18.43,2.58,1.6,2.58,5.46v.94a30.74,30.74,0,0,0,.18,4.57h-1.86a24.57,24.57,0,0,1-.18-4.49v-.74c0-3.57-1-4.63-4-4.63Zm0-2.15h5.12c2.71,0,4.07-1.29,4.07-4.15,0-2.61-1.37-3.89-4-3.89h-5.22Z"/><path d="M354,134H344.1v8.43H355l-.27,2.18H342.27V122.41h12.26v2.18H344.1v7.24H354Z"/><path d="M373.35,124.61H367v-2.2h14.47v2.2H375.2v20h-1.85Z"/><path d="M394.5,122.41h1.82v9.16h10.42v-9.16h1.82v22.21h-1.82V133.77H396.32v10.85H394.5Z"/><path d="M425.7,137.41l-2.29,7.21h-1.92l7.1-22.21h2.14l7.36,22.21h-2l-2.37-7.21Zm7.37-2.2c-2.11-6.43-3.1-9.42-3.47-10.87h0c-.33,1.39-1.5,5.32-3.25,10.87Z"/><path d="M451.14,144.62V122.41h2.2c3.39,6.23,9.56,17,10.45,19.14h0c-.14-3.05-.12-6.37-.12-10v-9.18h1.73v22.21h-2.09c-2.66-4.75-9.34-17-10.56-19.59h-.05c.12,2.89.12,6,.12,10v9.63Z"/><path d="M492.3,134h-9.92v8.43H493.3l-.27,2.18H480.56V122.41h12.25v2.18H482.38v7.24h9.92Z"/><path d="M556.57,134.75c0-4.24,0-8.24.1-10.49h0c-.79,3.13-4,12.87-6.4,20.36h-1.58c-1.81-6-5.28-17-6.18-20.34h0c.15,2.53.21,7.34.21,11.08v9.26H541V122.41h2.61c2.4,7.39,5.52,17.35,6,19.12h0c.79-2.55,4-12.27,6.14-19.12h2.65v22.21h-1.8Z"/><path d="M575.5,137.41l-2.28,7.21h-1.93l7.1-22.21h2.14l7.36,22.21h-2l-2.38-7.21Zm7.38-2.2c-2.12-6.43-3.11-9.42-3.48-10.87h0c-.32,1.39-1.5,5.32-3.25,10.87Z"/><path d="M615.34,138.27c-1,3.79-2.94,6.81-7.43,6.81-5.27,0-8.23-5.06-8.23-11.51S603,122,608,122c4.6,0,6.72,3.35,7.4,7h-1.89c-.8-2.62-2.22-4.8-5.54-4.8-3.91,0-6.35,3.93-6.35,9.35s2.45,9.43,6.38,9.43c3.26,0,4.54-2,5.49-4.64Z"/><path d="M629.08,122.41h1.83v9.16h10.41v-9.16h1.83v22.21h-1.83V133.77H630.91v10.85h-1.83Z"/><path d="M660.07,122.41v22.21h-1.82V122.41Z"/><path d="M675.16,144.62V122.41h2.2c3.39,6.23,9.56,17,10.45,19.14h.05c-.14-3.05-.12-6.37-.12-10v-9.18h1.73v22.21h-2.09c-2.66-4.75-9.34-17-10.56-19.59h-.05c.12,2.89.12,6,.12,10v9.63Z"/><path d="M716.32,134H706.4v8.43h10.92l-.27,2.18H704.58V122.41h12.25v2.18H706.4v7.24h9.92Z"/><path d="M732.83,134.76v9.86H731V122.41h7.44c3.2,0,5.45,2,5.45,5.94,0,2.63-.91,4.59-3,5.3,1.18.43,2.57,1.6,2.57,5.46v.94a30.5,30.5,0,0,0,.19,4.57h-1.87a25.51,25.51,0,0,1-.18-4.49v-.74c0-3.57-1-4.63-4-4.63Zm0-2.15H738c2.71,0,4.07-1.29,4.07-4.15,0-2.61-1.36-3.89-4-3.89h-5.22Z"/><path d="M762.66,144.62V136a.9.9,0,0,0-.15-.51l-6.81-13.1h2.18c2,3.89,5,9.58,5.76,11.36.8-1.81,3.7-7.47,5.7-11.36h2.06l-6.8,13.14a1,1,0,0,0-.11.51v8.56Z"/><path d="M180.79,71.42h31.35c1.35,6.67,6.05,10.65,15,10.76,5.6.07,13.32-1.4,13-7.51-.28-5.43-8.35-7.78-19.89-10.64-16.58-4.11-37.7-9.22-37.7-32.1,0-19.82,18.23-31.76,43.83-31.76,23.2,0,40.44,11,42.44,31.65H237.52c-.17-4.13-3.27-8.71-12.73-8.71-7.73,0-10.84,2-10.63,6.72.17,3.82,9.41,7.27,20.59,10,17,4.09,36.94,8.5,36.94,32.25,0,21-18.37,33.2-45.3,33.2C201.06,105.24,182.79,93,180.79,71.42Z"/><path d="M280.1,66.17V2.65H311V63.9c0,9.87,6.27,17.31,17.12,17.31s17-7.44,17-17.31V2.65h30.94V66.17c0,21.84-15,37.89-48.07,37.89C294.62,104.06,280.1,87.56,280.1,66.17Z"/><path d="M475,77.86v24.71H395.84V2.65h30.77V77.86Z"/><path d="M771.25,77.86v24.71H692.07V2.65h30.76V77.86Z"/><path d="M572.14,34.1c0,20.26-13.16,31.7-35.68,31.7h-18v36.77h-31V2.79h54.85C559.72,2.79,572.14,12.16,572.14,34.1Zm-29.85,0a11.26,11.26,0,0,0-10.77-11.28H518.43V45.37h12.34C535.26,45.37,542.29,41.7,542.29,34.1Z"/><path d="M577.9,52.55C577.9,21,598.84,0,630.19,0s52.29,21,52.29,52.55-20.94,52.54-52.29,52.54S577.9,84.08,577.9,52.55Zm71.92,0c-.33-15.63-5.94-28.18-19.63-28.18s-19.83,11.09-19.47,28.18c.34,15.9,5.78,28.28,19.47,28.28C642.43,80.83,650.22,71,649.82,52.55Z"/><path class="cls-1" d="M139.31,59.27c-7.43-6.7-18.79-9.87-33.23-12.16H142c6.05-25.68-36.8-35.18-64.26-35.18C50.9,11.93,34,14.53,21,24S7.79,49.76,20.57,56.5L18,55.84v78.77H66.11V110a0,0,0,0,1,0-.05c1.13,0,9.12.12,24.53-.34,15.86-.47,41.47-6.27,50-18.05C148,81.58,147.88,67,139.31,59.27ZM75.52,34.5C88.39,35,94.66,42.63,96.7,45.77c-6-.79-12.45-1.53-19.29-2.36-10.27-1.26-16.54-1.49-17.3-4.19S66.25,34.13,75.52,34.5Zm9.74,50.71a172.38,172.38,0,0,1-19.11.41.05.05,0,0,1,0-.05V68.78c3.54.47,7.08.89,10.58,1.28,15.77,1.76,18.78,5.19,18.71,8.45C95.3,82.75,89.42,84.88,85.26,85.21Z"/><path d="M60.65,131.56H23.37V60.43L60.65,70V88.24a0,0,0,0,0,.05.05c1.18,0,18.53.76,29-.6,6.66-.86,11.6-5.84,11.41-9.09-.19-3.1-1.93-9-16.52-10.65C66.49,65.88,40.1,63.13,25.47,55.17c-11.81-6.44-12.24-20.27-.14-29.34S56,13.84,77.67,14.68c13.44.52,61.21,4,59.58,29.6H101.74S92.27,31.76,75.81,31.71c-18.93-.05-22.24,5.36-21.53,7.93s3.67,4.28,21,6.6c23.66,3.17,48.48,4.33,59.42,14.51,7.92,7.37,7.84,20.1,1.12,29.66-7.91,11.26-31.27,16-45.94,16.44-14.26.44-28.1.33-29.13.32a0,0,0,0,0-.05,0Z"/><path class="cls-2" d="M55.73,128.64H28.42V65.4L55.73,72V91.08a0,0,0,0,0,0,0c1.19.05,26.57,1.11,36.06-.84,9.71-2,14.22-7,14.34-10.93s-3.15-11.7-20.33-14S42,60.31,30.25,53.68,18,35.67,30.12,26.6s34.1-9.78,47.55-9.4,49.87,2,54.21,24.19H104.42S98.58,29.3,75.81,28.85C51.47,28.36,48.33,37.15,49,39.72s2.44,6.69,26.19,9.2S120.46,54.46,129,61.08s8.81,20.21,1.22,29.09-25.74,13.12-40.41,13.57c-14.26.44-33,.33-34,.32a.05.05,0,0,0-.05,0Z"/></g></g></svg>